<svg xmlns="http://www.w3.org/2000/svg" viewBox="0 0 1224.5 219.86"><defs><style>.cls-1{fill:#fc40b2;}.cls-2{fill:#de0000;}</style></defs><g id="Layer_2" data-name="Layer 2"><g id="Layer_1-2" data-name="Layer 1"><path class="cls-1" d="M553.26,55.67c0-14.55-2.91-24.42-8.58-29.79-4.95-4.5-14-6.75-27.21-6.75H458V43.55H470.2V81.47c0,5.37-2.62,8-7.71,8a13.14,13.14,0,0,1-7.13-2.25V108c3.93,2.6,10,3.82,18.19,3.82,11.05,0,18.76-3,23.12-8.66,4.22-5.37,6.26-15.07,6.26-28.75V43.55h6.69c8,0,10,2.08,10,12.29v54.21h33.6ZM393.82,57.75l-33.6,8.14V132h33.6Zm55.57-38.62H360.22V43.55h55.42l-14.55,66.5h34.48l13.82-71.18Zm-101.08,0H317.76V63.81c0,9.52-2.76,16.8-8.29,21.47-4.8,4.16-11.06,6.24-18.91,6.24s-13.82-2.08-18.48-6.24c-5.52-4.85-8.29-12.12-8.29-21.64V19.13H233.25V67.79c0,13.16,4.94,23.9,14.83,32q15.5,13,42.77,13c19.2,0,33.74-4.5,43.78-13.68,9.17-8.31,13.68-19.56,13.68-33.76Zm-42.33,0H275.43V81.3l30.55-9Zm-85.66,0H186.71v90.92h33.61ZM173.26,55.67c0-14-3.35-23.9-9.89-29.61-5.38-4.68-14.11-6.93-26-6.93h-32V43.55h24.58c8,0,9.75,2.25,9.75,12.64v53.86h33.6Zm-75.36,0c0-14.55-2.91-24.42-8.58-29.79-4.95-4.5-14-6.75-27.21-6.75H2.62V43.55H14.84V81.47c0,5.37-2.62,8-7.71,8A13.12,13.12,0,0,1,0,87.19V108c3.93,2.6,10,3.82,18.18,3.82,11.06,0,18.77-3,23.13-8.66,4.22-5.37,6.26-15.07,6.26-28.75V43.55h6.69c8,0,10,2.08,10,12.29v54.21H97.9Z"/><polygon class="cls-2" points="622.52 68.13 622.52 18.85 588.9 18.85 588.9 77.88 622.52 68.13"/><rect class="cls-2" x="636.36" y="18.85" width="33.56" height="91.43"/><polygon class="cls-2" points="752.73 36.94 752.73 18.85 713.03 18.85 713.03 0 680.89 0 680.89 43.4 717.84 43.4 693.71 110.28 729.74 110.28 752.73 36.94"/><polygon class="cls-2" points="822.6 68.13 822.6 18.85 789.01 18.85 789.01 77.88 822.6 68.13"/><path class="cls-2" d="M925.83,63.25c0-23-6-46.71-30.71-46.71-18.61,0-24.54,23.38-24.54,23.38s-2.05-13.43-4.51-21.07H831.19s7.71,22.47,8.26,34.31c.45,9.74-4.68,57.12-4.68,57.12h33.76l2.76-47.38c.56-9.74,5.08-21.76,11.63-21.76,7.1,0,9.31,9.4,9.31,21.43,0,21.23-4,26.85-9.15,26.85a9.46,9.46,0,0,1-5.83-2.29V108s4.65,3.84,18.16,3.84c22.44,0,30.42-24.73,30.42-48.61"/><path class="cls-2" d="M998.12,110.28V55.59c0-30.32-14.38-36.74-35.9-36.74h-32V43.4h24.57c7.25,0,9.72,1.57,9.72,12.73v54.15Z"/><rect class="cls-1" y="146.67" width="997.43" height="2.6"/><path class="cls-1" d="M35.28,208.36H27.47v-20.3c0-3.38-.52-5.61-1.56-6.76-1.56-1.69-4.09-2.58-7.44-2.58H1.8v-5.88H18.47a31,31,0,0,1,8,.81A11.84,11.84,0,0,1,32.75,178c1.72,2.23,2.53,5.62,2.53,10.08Zm-25.67,0H1.8V188.67l7.81-3.45Z"/><path class="cls-1" d="M65,208.36H45.41v-5.89H57.17V182.38a3.39,3.39,0,0,0-1.42-2.84,5.22,5.22,0,0,0-3.12-.82H46.3v-5.88h6.33c3.94,0,6.92.74,8.93,2.3A8.45,8.45,0,0,1,65,182.38Z"/><path class="cls-1" d="M83.81,191.85,76,195.5V172.84h7.81Z"/><path class="cls-1" d="M124.14,178.72H119v29.64h-7.81V178.72H92.07v-5.88h32.07Z"/><path class="cls-1" d="M171.24,203.55c-3.2,3.93-7.88,6-14.13,6a21.31,21.31,0,0,1-6-.75V203a16.5,16.5,0,0,0,6,.75c3.64-.07,6.39-1.49,8.11-4.33a17,17,0,0,0,2.08-9A15.85,15.85,0,0,0,165,181.7a8.13,8.13,0,0,0-7.21-4.19c-5,0-8.86,4-11.61,12a85.12,85.12,0,0,0-2.61,11l-1.48,7.85h-8.56l3-12.65a48.44,48.44,0,0,0,1.26-6.9c-.07-1.43-1.12-4.74-3.13-10-.81-2.09-1.63-4.12-2.45-5.95h8.56c.37.81.89,2.23,1.71,4.19a43.24,43.24,0,0,1,1.49,4.88,14.64,14.64,0,0,1,14.36-10c5.28,0,9.37,1.69,12.27,5s4.54,7.85,4.62,13.46S174,200.24,171.24,203.55Z"/><path class="cls-1" d="M216.79,208.36H183.3v-5.89h21.28V188.06c0-3.58-.52-5.95-1.48-7-1.42-1.56-3.87-2.31-7.52-2.31H183.45v-5.88h12.13a31.33,31.33,0,0,1,8,.81,10.66,10.66,0,0,1,6.25,4.33c1.71,2.5,2.53,5.89,2.53,10.08v14.41h4.39Z"/><path class="cls-1" d="M282,208.36H246V172.84h19.12a26.9,26.9,0,0,1,7.89.88,12.27,12.27,0,0,1,6.4,4.33c1.71,2.1,2.53,5.48,2.53,10Zm-7.82-5.89V188.06c0-3-.67-5.14-1.93-6.56a9.16,9.16,0,0,0-7.07-2.78H253.85v23.75Z"/><path class="cls-1" d="M301.77,191.85,294,195.5V172.84h7.81Z"/><path class="cls-1" d="M342.92,178.72l-14.28,29.64h-8.71l14.29-29.64H311.38V161.34h7.81v11.5h23.73Z"/><path class="cls-1" d="M359.07,208.36h-7.81V172.84h7.81Z"/><path class="cls-1" d="M387.87,178.72H387a5.94,5.94,0,0,0-5,2.37,9.09,9.09,0,0,0-1.63,3.66,36.44,36.44,0,0,0-.15,3.92v19.69H372.4V190.63a16.48,16.48,0,0,1,1.71-7.3,40.72,40.72,0,0,1,3.42-4.61h-9.45v-5.88h19.79Z"/><path class="cls-1" d="M430.88,208.36h-7.81v-20.3c0-3.38-.52-5.61-1.56-6.76-1.56-1.69-4.09-2.58-7.44-2.58H397.4v-5.88h16.67a31,31,0,0,1,8,.81,11.84,11.84,0,0,1,6.32,4.33c1.71,2.23,2.53,5.62,2.53,10.08Zm-25.67,0H397.4V188.67l7.81-3.45Z"/><path class="cls-1" d="M503.36,208.36h-7.81v-20.3c0-3-.6-5.21-1.86-6.56a9.31,9.31,0,0,0-7.14-2.78h-9.08v21.59a7.82,7.82,0,0,1-1.26,4.53c-1.27,1.89-4.47,4.33-9.53,4.33a12.51,12.51,0,0,1-5.28-.88v-5.75a6.19,6.19,0,0,0,5.21.61,3.78,3.78,0,0,0,3.05-4V178.72h-7.07v-5.88h24a31,31,0,0,1,8,.81,11.84,11.84,0,0,1,6.32,4.33c1.71,2.23,2.53,5.62,2.53,10.08Z"/><path class="cls-1" d="M543.33,208.36h-7.82v-20.3c0-3-.59-5.21-1.86-6.56a9.31,9.31,0,0,0-7.14-2.78h-13v-5.88h13a31,31,0,0,1,8,.81A11.9,11.9,0,0,1,540.8,178c1.71,2.23,2.53,5.62,2.53,10.08Z"/><path class="cls-1" d="M561.34,208.36h-7.81V172.84h7.81Z"/><path class="cls-1" d="M617.22,189.55a19,19,0,0,1-6.4,14.34,22,22,0,0,1-15.47,5.89c-14.59,0-21.88-6.77-21.88-20.23V172.84h7.81v19.35a12.24,12.24,0,0,0,6.55-1.42,5.82,5.82,0,0,0,3.42-4.13,15.86,15.86,0,0,0,.3-4.06v-9.74h7.81v9.74a12.48,12.48,0,0,1-3.12,8.8c-2.83,3-7.52,4.66-14.07,5,1.27,5.15,5.59,7.72,13,7.72a14.05,14.05,0,0,0,9.67-3.79,13.45,13.45,0,0,0,4.54-10.42v-17h7.81Z"/><path class="cls-1" d="M667.53,178.72l-13.25,29.64h-8.63l13.4-29.64H628.91v-5.88h38.62Zm-28.65,41.14h-7.81V188.67l7.81-3.45Z"/><path class="cls-1" d="M718.2,208.36h-7.81v-20.3c0-3-.59-5.21-1.86-6.56a9.31,9.31,0,0,0-7.14-2.78h-9.08v21.59a7.75,7.75,0,0,1-1.26,4.53c-1.27,1.89-4.47,4.33-9.53,4.33a12.51,12.51,0,0,1-5.28-.88v-5.75a6.19,6.19,0,0,0,5.21.61,3.78,3.78,0,0,0,3-4V178.72h-7.07v-5.88h24a31,31,0,0,1,8,.81,11.9,11.9,0,0,1,6.33,4.33c1.71,2.23,2.52,5.62,2.52,10.08Z"/><path class="cls-1" d="M764.79,208.36H757v-20.3c0-3.38-.52-5.61-1.56-6.76-1.57-1.69-4.1-2.58-7.44-2.58H731.31v-5.88H748a31.07,31.07,0,0,1,8,.81,11.84,11.84,0,0,1,6.32,4.33c1.71,2.23,2.53,5.62,2.53,10.08Zm-25.67,0h-7.81V188.67l7.81-3.45Z"/><path class="cls-1" d="M803.86,191.85l-7.81,3.65V172.84h7.81Z"/><path class="cls-1" d="M857.07,208.36h-7.82v-20.3c0-3-.59-5.21-1.86-6.56a9.31,9.31,0,0,0-7.14-2.78h-9.08v21.59a7.75,7.75,0,0,1-1.26,4.53c-1.27,1.89-4.47,4.33-9.52,4.33a12.56,12.56,0,0,1-5.29-.88v-5.75a6.19,6.19,0,0,0,5.21.61,3.78,3.78,0,0,0,3.05-4V178.72h-7.07v-5.88h24a31,31,0,0,1,8,.81,11.9,11.9,0,0,1,6.33,4.33c1.71,2.23,2.53,5.62,2.53,10.08Z"/><path class="cls-1" d="M877,208.36H869.2V172.84H877Z"/><path class="cls-1" d="M917.27,208.36h-7.81v-20.3c0-3-.6-5.21-1.86-6.56a9.31,9.31,0,0,0-7.14-2.78h-13v-5.88h13a31.07,31.07,0,0,1,8,.81,11.84,11.84,0,0,1,6.32,4.33c1.71,2.23,2.53,5.62,2.53,10.08Z"/><path class="cls-1" d="M935.06,191.85l-7.81,3.65V172.84h7.81Z"/><path class="cls-1" d="M990.72,189.55a19,19,0,0,1-6.4,14.34,22,22,0,0,1-15.48,5.89c-14.58,0-21.87-6.77-21.87-20.23V172.84h7.81v19.35a12.24,12.24,0,0,0,6.55-1.42,5.84,5.84,0,0,0,3.42-4.13,16.35,16.35,0,0,0,.3-4.06v-9.74h7.81v9.74a12.48,12.48,0,0,1-3.12,8.8c-2.83,3-7.52,4.66-14.07,5,1.27,5.15,5.58,7.72,13,7.72a14.08,14.08,0,0,0,9.68-3.79,13.44,13.44,0,0,0,4.53-10.42v-17h7.82Z"/><path class="cls-1" d="M1029.57,66.52V95.57a113.72,113.72,0,0,1,113.55,111.92v1.63h29.05c0-.94,0-1.87,0-2.84A142.61,142.61,0,0,0,1029.57,66.52m0,91.09V185.7A23.4,23.4,0,0,0,1053,209.12h28.1a51.55,51.55,0,0,0-51.48-51.51m0-45.53v29a68.06,68.06,0,0,1,68,68h29.06v-1.38a97.2,97.2,0,0,0-97-95.66m171.54-97.92H1053a23.4,23.4,0,0,0-23.38,23.41V50c86.28,0,157.35,69.28,159,155.94,0,1.08,0,2.09,0,3.17h12.46a23.39,23.39,0,0,0,23.39-23.42V37.57a23.39,23.39,0,0,0-23.39-23.41"/></g></g></svg>